<?xml version="1.0" standalone="no"?>
<!DOCTYPE svg PUBLIC "-//W3C//DTD SVG 20010904//EN"
 "http://www.w3.org/TR/2001/REC-SVG-20010904/DTD/svg10.dtd">
<svg version="1.0" xmlns="http://www.w3.org/2000/svg"
 width="500.000000pt" height="500.000000pt" viewBox="0 0 500.000000 500.000000"
 preserveAspectRatio="xMidYMid meet">

<g transform="translate(0.000000,500.000000) scale(0.100000,-0.100000)"
fill="#000000" stroke="none">
<path d="M2483 4904 c-74 -37 -69 -198 7 -227 29 -11 30 -13 30 -77 1 -36 7
-101 15 -145 8 -44 15 -82 15 -85 0 -2 -16 20 -36 50 -20 30 -45 65 -55 76
-15 16 -18 29 -13 48 10 42 -15 111 -56 156 -31 34 -43 40 -78 40 -55 0 -72
-19 -72 -83 0 -40 6 -62 25 -90 31 -45 96 -81 133 -72 24 5 31 -1 69 -57 58
-86 99 -173 144 -307 71 -210 109 -440 109 -668 0 -107 2 -123 16 -123 15 0
16 18 11 188 -6 201 -28 356 -74 522 -21 77 -26 114 -25 199 1 91 13 191 28
244 3 9 13 17 23 17 47 0 87 87 78 170 -11 96 -106 108 -152 20 -21 -41 -19
-116 4 -154 18 -29 18 -36 5 -96 -7 -36 -14 -82 -14 -102 0 -20 -4 -39 -8 -42
-11 -7 -50 161 -63 272 -11 84 -11 84 16 112 48 51 52 147 7 198 -24 29 -52
34 -89 16z"/>
<path d="M1586 4888 c-21 -30 -20 -44 4 -68 39 -39 99 -17 100 36 0 50 -76 73
-104 32z"/>
<path d="M2923 4830 c-50 -20 -54 -97 -6 -119 21 -9 32 -8 62 6 48 24 55 70
15 102 -29 23 -38 24 -71 11z"/>
<path d="M3142 4708 c-7 -7 -12 -24 -12 -39 0 -30 31 -45 62 -28 34 18 17 79
-22 79 -9 0 -21 -5 -28 -12z"/>
<path d="M1306 4613 c-9 -10 -7 -63 5 -108 16 -59 54 -109 114 -151 104 -71
72 -81 -93 -30 -106 33 -136 24 -73 -22 49 -35 102 -47 176 -37 l54 6 5 -43
c6 -48 15 -198 13 -198 -1 0 -32 29 -69 64 -47 45 -82 69 -118 81 -27 9 -55
15 -61 13 -24 -8 66 -90 141 -128 84 -42 123 -82 158 -162 12 -27 26 -48 31
-48 15 0 14 5 -9 49 -25 50 -60 176 -60 219 0 70 42 112 125 126 22 4 56 12
75 18 l35 11 -35 13 c-61 22 -96 17 -137 -18 -21 -18 -42 -37 -46 -43 -24 -29
8 66 40 119 45 73 63 112 63 137 0 17 -3 18 -20 9 -33 -17 -73 -87 -92 -159
l-17 -66 0 60 c-1 48 5 72 30 120 52 100 57 109 64 133 10 36 -13 27 -65 -25
-49 -49 -69 -96 -70 -163 l-1 -35 -27 34 c-14 18 -41 67 -58 107 -34 78 -67
128 -78 117z"/>
<path d="M2988 4609 c-37 -21 -13 -99 31 -99 40 0 68 69 39 98 -15 15 -47 15
-70 1z"/>
<path d="M1801 4553 c-15 -52 -25 -185 -17 -217 3 -14 13 -26 21 -26 11 0 14
20 14 99 0 54 2 104 5 112 15 48 16 69 2 69 -9 0 -19 -16 -25 -37z"/>
<path d="M3800 4546 c-16 -21 -9 -56 16 -73 18 -12 24 -11 47 8 29 22 34 48
15 67 -17 17 -63 15 -78 -2z"/>
<path d="M3160 4493 c-53 -27 -83 -92 -75 -163 4 -30 15 -74 25 -97 17 -39 22
-43 54 -43 19 0 41 -3 50 -6 10 -4 27 5 46 26 36 38 38 32 8 -21 -12 -21 -19
-42 -15 -45 12 -12 53 6 97 43 54 44 28 8 -34 -49 -22 -20 -38 -40 -35 -43 13
-13 136 -17 177 -6 100 27 110 149 18 212 -22 15 -43 42 -55 71 -20 48 -27 52
-77 49 -14 -2 -33 12 -55 38 -41 49 -79 59 -129 34z"/>
<path d="M2813 4430 c-36 -15 -46 -46 -39 -121 l7 -68 -30 -16 c-60 -30 -49
-100 24 -161 68 -56 189 -68 269 -27 l30 16 -75 21 c-62 19 -146 55 -129 55 3
1 34 -8 68 -19 83 -26 118 -26 125 0 3 11 2 20 -1 20 -4 0 -25 16 -47 36 l-40
36 48 -27 c46 -25 50 -26 67 -10 17 16 18 19 2 60 -24 65 -82 146 -128 178
-45 31 -113 44 -151 27z"/>
<path d="M720 4386 c0 -31 54 -222 85 -303 40 -100 42 -114 17 -87 -38 41 -71
66 -80 60 -5 -3 23 -39 62 -79 39 -41 87 -100 106 -131 135 -219 198 -306 291
-398 71 -72 102 -96 114 -92 13 6 3 20 -52 73 -169 163 -315 384 -344 523 -11
49 -9 102 7 176 4 20 3 32 -4 32 -15 0 -25 -35 -31 -115 l-6 -70 -23 50 c-36
78 -101 276 -108 328 -4 30 -12 47 -20 47 -8 0 -14 -6 -14 -14z"/>
<path d="M3963 4148 c-12 -40 -42 -107 -67 -148 -49 -83 -165 -215 -166 -189
0 17 71 132 89 143 21 13 43 68 37 92 -14 53 -74 21 -116 -62 l-21 -39 3 108
c3 79 0 107 -9 107 -25 0 -38 -216 -20 -340 l8 -55 -68 -51 c-38 -28 -83 -59
-100 -69 -18 -11 -33 -23 -33 -27 0 -35 164 67 265 163 80 77 84 79 131 79 63
0 94 9 88 24 -3 9 -20 10 -54 6 -28 -4 -52 -5 -54 -3 -2 3 14 34 35 69 22 36
44 76 49 89 7 17 29 31 85 52 75 27 102 51 91 79 -9 23 -66 17 -103 -12 l-34
-26 7 29 c10 44 10 47 -6 50 -11 2 -21 -17 -37 -69z"/>
<path d="M3126 4135 c-30 -31 -18 -78 26 -101 27 -14 32 -14 53 0 34 23 41 53
18 85 -24 31 -73 40 -97 16z"/>
<path d="M3328 4039 c41 -27 41 -32 -3 -13 -43 18 -51 18 -59 -1 -3 -10 10
-31 35 -56 40 -40 27 -39 -33 3 -22 15 -32 17 -48 8 -21 -11 -21 -12 10 -67
29 -56 30 -56 4 -32 -14 13 -34 38 -45 55 -32 52 -45 51 -115 -16 -78 -75 -99
-79 -27 -5 53 55 60 69 45 93 -7 10 -15 10 -38 1 -16 -6 -66 -12 -110 -14 -61
-1 -88 -7 -107 -21 -29 -21 -43 -69 -33 -109 7 -29 59 -65 93 -65 17 0 25 -9
33 -40 21 -79 92 -129 164 -116 19 4 52 20 75 36 48 35 55 36 113 10 73 -32
138 -3 158 72 8 29 19 42 49 57 43 22 71 59 71 93 0 31 -33 83 -66 104 -27 18
-129 44 -174 44 -24 0 -24 -1 8 -21z"/>
<path d="M2079 3798 c-29 -10 -49 -45 -49 -86 0 -89 129 -109 161 -25 25 66
-44 135 -112 111z"/>
<path d="M3656 3619 c-30 -36 -35 -92 -10 -127 13 -19 13 -27 3 -57 -8 -20
-22 -37 -33 -41 -12 -3 -31 -10 -43 -16 -17 -8 -26 -8 -38 2 -17 14 -20 46 -5
55 6 3 10 22 10 41 0 26 -8 44 -29 65 -67 66 -171 16 -171 -82 0 -54 32 -89
81 -89 22 0 49 5 59 10 26 14 51 -24 56 -83 3 -38 0 -44 -30 -65 -46 -32 -79
-69 -68 -76 6 -3 35 14 65 38 47 39 58 44 83 37 17 -4 35 -19 42 -34 12 -24
11 -30 -7 -53 -31 -39 -29 -107 4 -139 65 -66 190 10 166 101 -9 34 -66 76
-96 72 -14 -2 -25 6 -36 25 -15 28 -15 30 14 58 35 35 97 42 97 10 0 -21 63
-81 85 -81 29 0 82 33 99 60 26 45 21 85 -18 127 -28 31 -40 37 -72 36 -30 -1
-45 -8 -66 -32 -16 -17 -28 -38 -28 -46 0 -23 -69 -20 -77 3 -3 9 -12 24 -20
33 -20 24 10 93 37 84 25 -8 86 18 99 43 14 26 14 77 1 103 -14 25 -62 49 -99
49 -20 0 -37 -9 -55 -31z"/>
<path d="M2956 3600 c-15 -18 -38 -54 -51 -79 -26 -53 -60 -160 -52 -168 12
-11 25 9 47 69 12 35 38 91 57 125 40 73 40 101 -1 53z"/>
<path d="M401 3524 c-29 -36 -27 -76 5 -108 28 -27 80 -36 100 -16 7 7 18 5
35 -8 26 -21 107 -64 154 -84 l30 -12 -45 -3 c-25 -2 -78 -10 -119 -19 -45
-10 -76 -12 -80 -6 -21 32 -93 42 -129 16 -31 -21 -31 -93 1 -129 32 -37 92
-38 124 -1 12 15 23 40 23 56 0 25 5 29 53 41 28 8 97 14 152 14 109 0 148
-13 219 -75 49 -44 67 -37 22 9 -47 48 -121 89 -238 131 -48 17 -107 45 -132
62 -39 25 -45 34 -40 54 10 38 -4 72 -36 89 -43 22 -76 19 -99 -11z"/>
<path d="M1098 3365 c-3 -3 0 -26 7 -50 27 -90 74 -160 138 -206 74 -54 89
-31 47 74 -25 62 -36 77 -81 109 -61 44 -57 48 14 13 50 -26 57 -25 70 10 3 6
7 7 11 3 4 -3 3 -15 -3 -26 -18 -34 -13 -66 20 -127 l30 -57 -25 -27 c-35 -37
-33 -67 8 -106 50 -47 87 -51 163 -18 88 38 85 59 -11 73 l-51 8 59 1 c67 1
66 6 -9 46 -27 14 -41 24 -30 21 11 -3 39 -10 63 -16 76 -19 82 8 20 78 -41
45 -29 39 37 -18 26 -23 37 -26 82 -22 l52 4 12 52 c14 65 10 84 -21 107 -22
15 -32 16 -77 6 -49 -10 -55 -9 -121 21 -76 35 -113 39 -156 17 -18 -10 -33
-12 -40 -6 -24 19 -195 49 -208 36z"/>
<path d="M4342 3328 c-7 -7 -12 -21 -12 -33 0 -28 19 -45 50 -45 31 0 50 17
50 45 0 28 -19 45 -50 45 -14 0 -31 -5 -38 -12z"/>
<path d="M1835 3306 c-46 -20 -71 -55 -90 -123 -17 -61 -17 -62 4 -89 11 -15
21 -36 21 -47 0 -18 5 -19 47 -13 54 7 51 -4 -4 -13 -47 -8 -56 -34 -16 -50
l28 -11 -32 5 c-53 7 -50 -14 9 -71 51 -49 58 -52 120 -59 83 -9 120 -1 157
34 43 40 57 102 36 158 -22 57 -66 90 -134 99 l-53 7 7 41 c12 64 10 106 -6
120 -22 21 -61 26 -94 12z"/>
<path d="M872 3075 c-169 -30 -391 -124 -400 -170 -4 -19 62 -84 123 -120 125
-73 317 -102 461 -70 103 22 177 62 248 134 l58 58 -47 12 c-36 9 -56 9 -84 0
-53 -17 -149 -66 -206 -106 l-50 -34 51 48 c27 26 78 62 112 78 33 17 61 33
61 36 1 4 -29 9 -67 13 -91 9 -197 -14 -295 -63 -43 -22 -73 -33 -66 -25 16
19 108 71 142 79 15 4 27 11 27 16 0 14 -188 -6 -340 -36 -14 -3 2 4 35 16
137 46 419 63 580 34 43 -8 81 -12 83 -10 2 2 -1 12 -7 23 -6 12 -11 29 -11
40 0 47 -245 75 -408 47z"/>
<path d="M1626 3069 c-58 -45 -10 -135 58 -109 49 18 59 68 21 105 -29 30 -45
31 -79 4z"/>
<path d="M2380 3077 c-52 -26 -29 -107 31 -107 30 0 59 31 59 62 0 21 -34 58
-52 58 -7 0 -24 -6 -38 -13z"/>
<path d="M2172 3043 c2 -5 23 -48 46 -98 58 -119 126 -325 151 -457 11 -58 27
-175 36 -260 8 -84 17 -173 20 -198 3 -34 1 -29 -10 20 -67 300 -112 448 -160
535 -36 64 -140 195 -156 195 -13 0 -11 -78 2 -142 19 -87 84 -233 179 -404
50 -89 90 -165 90 -168 0 -4 -22 19 -49 51 -53 64 -184 153 -189 129 -5 -22
45 -124 94 -192 25 -35 80 -94 123 -130 93 -78 91 -69 91 -333 0 -157 8 -217
24 -200 4 3 11 32 17 65 14 73 25 96 109 214 83 117 142 232 138 268 l-3 27
-47 -43 c-25 -24 -63 -67 -84 -97 -20 -30 -39 -55 -40 -55 -6 0 49 187 77 263
29 80 112 253 130 272 5 5 9 18 9 30 -1 20 -1 20 -16 0 -96 -124 -206 -399
-254 -634 l-17 -86 -7 150 c-21 460 -58 716 -137 950 -38 113 -144 335 -159
335 -7 0 -10 -3 -8 -7z"/>
<path d="M1505 2941 c-99 -46 -148 -109 -149 -193 -1 -75 35 -94 141 -74 l42
8 17 -42 c28 -69 98 -89 174 -50 49 25 78 78 86 158 5 48 3 66 -16 103 -12 24
-31 53 -42 65 -18 20 -21 20 -53 6 -30 -14 -35 -21 -36 -52 l-1 -35 -10 37
c-7 27 -17 39 -39 47 -27 9 -31 7 -54 -27 -30 -44 -34 -31 -5 16 33 55 16 65
-55 33z"/>
<path d="M2925 2895 c-28 -27 -30 -42 -14 -79 14 -29 58 -42 88 -26 45 23 55
89 19 114 -32 23 -65 20 -93 -9z"/>
<path d="M4395 2846 c-44 -13 -115 -39 -158 -59 -129 -61 -342 -201 -314 -208
1 0 22 -2 47 -5 110 -12 222 -74 365 -203 147 -134 234 -163 296 -102 35 35
37 68 8 128 -59 122 -276 215 -506 217 -61 1 -110 2 -109 3 1 1 45 14 96 29
83 23 122 27 305 33 197 6 213 8 253 31 63 35 71 95 19 134 -44 32 -195 33
-302 2z m281 -31 c28 -18 31 -37 9 -59 -26 -26 -84 -36 -240 -41 -103 -3 -137
-2 -110 5 22 5 70 9 106 9 74 1 102 18 82 49 -8 13 -25 17 -74 17 -35 0 -77
-3 -94 -7 -28 -7 -28 -6 5 9 94 43 263 53 316 18z m-340 -256 c132 -34 232
-99 281 -183 17 -29 16 -72 -3 -90 -42 -43 -138 -2 -261 111 -43 39 -89 81
-103 93 -42 36 75 -25 148 -77 73 -52 115 -60 120 -24 7 50 -115 139 -237 172
-36 10 -57 18 -45 18 11 1 56 -8 100 -20z"/>
<path d="M3620 2847 c-36 -7 -92 -26 -125 -41 l-60 -29 47 -10 c35 -7 64 -5
117 7 38 9 83 16 98 15 34 -1 25 -4 -49 -19 -66 -13 -74 -25 -24 -33 36 -6
150 -56 143 -63 -2 -2 -21 3 -43 12 -47 20 -146 45 -153 38 -7 -6 78 -93 114
-115 17 -10 26 -19 20 -19 -18 0 -68 37 -129 94 -53 50 -64 56 -103 56 -52 0
-56 -16 -17 -72 68 -98 298 -224 360 -196 34 16 40 51 16 92 l-20 34 23 6 c28
7 38 31 25 56 -8 15 -5 20 20 29 43 15 66 70 46 109 -8 16 -27 34 -42 41 -40
18 -188 23 -264 8z"/>
<path d="M1830 2695 c0 -3 9 -22 19 -43 23 -45 83 -103 131 -128 39 -19 110
-35 110 -24 0 28 -114 146 -167 173 -33 17 -93 31 -93 22z"/>
<path d="M620 2620 c-26 -26 -25 -56 3 -74 30 -20 66 -10 73 20 7 26 -7 48
-37 65 -14 7 -24 4 -39 -11z"/>
<path d="M1233 2485 c-105 -29 -198 -70 -197 -88 3 -31 68 -127 129 -191 101
-106 238 -187 370 -221 58 -16 99 -18 240 -15 94 2 219 4 279 4 107 -1 108 -1
85 17 -47 36 -135 77 -200 93 -75 18 -228 21 -313 5 -84 -15 -91 -5 -10 14 90
22 195 35 253 30 l46 -3 -65 34 c-118 63 -182 80 -310 80 -63 1 -137 -2 -165
-6 -72 -10 -15 8 94 31 l85 17 -126 38 c-69 20 -163 41 -209 45 -81 8 -82 8
-24 10 152 3 411 -65 638 -168 38 -17 71 -31 74 -31 17 0 -193 156 -249 186
-38 19 -68 37 -68 39 0 2 27 -7 61 -20 73 -29 201 -113 289 -190 60 -53 146
-120 179 -140 46 -27 -82 126 -189 228 -118 111 -201 159 -334 193 -107 28
-278 32 -363 9z"/>
<path d="M3562 2439 c9 -27 107 -69 160 -69 60 0 60 15 -1 48 -50 29 -167 44
-159 21z"/>
<path d="M530 2426 c-41 -13 -80 -67 -80 -110 0 -71 71 -134 138 -121 87 16
124 129 65 195 -35 38 -78 51 -123 36z m80 -41 c33 -17 46 -51 35 -92 -14 -57
-88 -73 -124 -27 -42 54 -14 118 57 133 2 1 16 -6 32 -14z"/>
<path d="M1944 2412 c29 -55 91 -91 175 -99 l56 -6 -36 44 c-46 55 -109 89
-166 89 l-44 0 15 -28z"/>
<path d="M806 2384 c-21 -21 -20 -47 2 -67 25 -23 48 -21 66 5 20 29 20 34 -4
58 -24 24 -43 25 -64 4z"/>
<path d="M2527 2352 c-20 -22 -22 -73 -5 -90 33 -33 108 5 108 54 0 49 -69 73
-103 36z"/>
<path d="M3334 2359 c-105 -14 -197 -56 -276 -126 -45 -40 -228 -257 -228
-270 0 -3 17 9 38 25 71 56 237 156 347 208 102 48 261 101 271 91 2 -2 -44
-23 -103 -47 -134 -52 -265 -121 -391 -205 -97 -64 -188 -146 -147 -131 11 4
84 23 163 41 195 47 302 98 436 209 47 39 136 148 136 167 0 11 -92 36 -150
41 -25 2 -68 1 -96 -3z"/>
<path d="M2806 2188 c-30 -43 -14 -78 36 -78 45 0 67 69 29 90 -30 16 -48 12
-65 -12z"/>
<path d="M3690 2190 c-24 -44 38 -83 70 -45 10 12 10 21 2 40 -14 31 -56 34
-72 5z"/>
<path d="M3384 2019 c-45 -8 -131 -46 -140 -61 -5 -7 26 -9 88 -6 84 3 101 7
138 32 23 15 40 29 38 30 -9 9 -88 12 -124 5z"/>
<path d="M586 1903 c-106 -4 -108 -4 -102 -26 3 -12 11 -61 17 -109 l12 -88
397 0 c218 0 457 -5 531 -11 335 -26 598 -108 730 -227 27 -24 47 -47 45 -50
-3 -3 -29 13 -58 35 -136 104 -239 143 -488 183 -198 33 -395 42 -787 36
l-368 -5 -6 -133 c-10 -194 -49 -485 -75 -553 -5 -13 105 -15 843 -17 l848 -3
41 -22 c22 -12 51 -38 65 -57 l24 -36 202 0 202 0 27 36 c15 19 46 45 68 57
l41 22 848 3 c799 2 849 4 842 20 -32 80 -65 323 -74 535 l-6 148 -377 5
c-401 5 -572 -3 -788 -37 -234 -38 -326 -71 -453 -163 -43 -31 -80 -56 -83
-56 -2 0 1 9 8 21 21 34 167 124 253 157 238 89 451 112 1048 112 l397 0 0 38
c1 20 6 69 13 108 l13 71 -150 7 c-316 13 -797 2 -962 -24 -304 -47 -529 -144
-681 -296 -47 -46 -153 -195 -153 -214 0 -4 -7 -25 -16 -46 l-16 -38 -29 69
c-50 117 -135 224 -243 304 -144 109 -325 178 -571 217 -175 29 -596 39 -1029
27z m977 -378 c160 -24 321 -70 406 -116 100 -54 146 -88 133 -101 -7 -7 -22
-2 -44 16 -51 38 -192 101 -283 124 -199 53 -489 77 -805 69 -102 -3 -174 -3
-160 -1 143 26 604 31 753 9z m2527 -5 c30 -6 -19 -7 -145 -3 -375 10 -711
-27 -908 -102 -58 -22 -176 -84 -205 -107 -7 -6 -15 -8 -18 -5 -28 28 176 141
321 177 218 55 277 60 605 55 168 -3 325 -10 350 -15z m-3317 -17 c-7 -2 -19
-2 -25 0 -7 3 -2 5 12 5 14 0 19 -2 13 -5z m617 -113 c0 -9 -349 -3 -359 6 -2
2 77 4 177 4 112 0 182 -4 182 -10z m2499 6 c-10 -8 -369 -14 -369 -5 0 5 77
9 187 9 102 0 184 -2 182 -4z m-2072 -196 c140 -19 265 -70 316 -130 31 -37 8
-41 -37 -6 -96 73 -257 114 -486 124 -116 5 -150 8 -115 13 85 10 240 10 322
-1z m1598 0 c40 -6 27 -8 -70 -9 -237 -2 -434 -53 -533 -135 -34 -29 -42 -32
-42 -13 0 30 104 102 183 127 108 34 340 49 462 30z m-2300 -119 c11 -5 -81
-10 -215 -13 -233 -4 -316 2 -190 13 101 9 383 9 405 0z m3078 2 c177 -11 87
-20 -163 -15 -137 3 -236 8 -225 13 25 9 256 11 388 2z m-3586 -19 c-3 -3 -12
-4 -19 -1 -8 3 -5 6 6 6 11 1 17 -2 13 -5z"/>
<path d="M2328 623 c7 -3 16 -2 19 1 4 3 -2 6 -13 5 -11 0 -14 -3 -6 -6z"/>
<path d="M3027 621 c-39 -8 -95 -68 -103 -108 -14 -74 19 -145 78 -170 39 -17
58 -16 36 1 -68 51 -61 232 10 270 29 16 24 18 -21 7z"/>
<path d="M1028 613 c9 -3 12 -41 12 -138 0 -97 -3 -135 -12 -138 -7 -3 20 -6
60 -6 72 -1 138 17 154 42 4 7 8 24 8 39 0 29 -44 68 -77 68 -13 0 -9 6 15 20
37 23 47 40 38 73 -6 24 -43 47 -74 47 -16 -1 -16 -1 1 -11 11 -7 17 -22 17
-49 0 -50 -8 -70 -29 -71 -13 0 -13 -2 -1 -6 33 -12 50 -37 50 -73 0 -50 -19
-73 -55 -68 l-30 3 -3 129 c-2 97 1 131 10 138 8 4 -10 7 -42 7 -30 0 -49 -3
-42 -6z"/>
<path d="M1365 608 c-38 -22 -75 -86 -75 -131 0 -44 35 -110 69 -130 43 -25
54 -21 29 13 -39 53 -38 200 3 241 21 21 6 25 -26 7z"/>
<path d="M1472 609 c30 -17 51 -109 39 -174 -12 -62 -26 -95 -43 -95 -6 0 -9
-3 -5 -6 3 -3 21 2 41 11 40 19 76 82 76 133 0 68 -54 142 -104 142 -19 -1
-19 -2 -4 -11z"/>
<path d="M1638 613 c17 -7 17 -254 0 -271 -9 -9 -2 -12 33 -12 l44 0 -3 71 -4
70 29 -3 c24 -3 29 -9 36 -43 15 -70 29 -90 67 -93 19 -1 30 1 24 5 -6 4 -14
26 -18 48 -8 43 -31 75 -53 75 -22 0 -14 14 20 35 64 40 41 110 -39 121 -37 5
-38 5 -14 -8 20 -11 26 -23 28 -56 4 -52 -10 -72 -49 -72 -29 0 -29 0 -29 64
0 42 4 66 13 69 6 3 -13 5 -43 5 -30 0 -49 -2 -42 -5z"/>
<path d="M1928 483 c2 -104 0 -138 -10 -144 -8 -5 11 -9 45 -9 53 0 57 1 43
16 -22 22 -22 112 0 121 28 10 47 -11 59 -63 15 -67 21 -74 61 -74 26 0 33 3
27 12 -4 7 -15 33 -23 58 -10 31 -23 49 -43 58 l-28 14 32 16 c41 21 54 42 45
75 -9 39 -53 57 -138 57 l-73 0 3 -137z m137 62 l0 -60 -37 -3 -38 -3 0 59 c0
32 3 62 7 66 4 4 21 6 38 4 30 -3 30 -3 30 -63z"/>
<path d="M2265 609 c-31 -15 -66 -73 -72 -118 -10 -74 52 -162 114 -161 17 1
17 1 0 11 -47 28 -64 172 -28 242 20 39 18 42 -14 26z"/>
<path d="M2392 585 c36 -63 24 -219 -20 -245 -16 -9 -16 -9 0 -10 9 0 35 17
57 38 43 41 58 87 47 147 -7 38 -64 105 -89 105 -14 0 -13 -5 5 -35z"/>
<path d="M2545 528 c62 -173 71 -193 84 -193 7 0 19 18 27 40 16 48 16 48 5
41 -11 -7 -75 180 -66 194 4 6 -11 10 -39 10 l-44 0 33 -92z"/>
<path d="M2673 613 c3 -5 22 -62 42 -128 21 -66 42 -123 47 -126 5 -3 9 -9 9
-13 -1 -3 1 -6 4 -6 3 0 9 0 14 0 25 0 20 56 -15 157 -30 86 -34 107 -23 114
9 6 -3 9 -34 9 -27 0 -46 -3 -44 -7z"/>
<path d="M2836 612 c6 -4 15 -15 21 -25 8 -16 10 -16 21 8 11 24 10 25 -21 25
-17 0 -27 -4 -21 -8z"/>
<path d="M3118 604 c13 -9 27 -26 31 -37 7 -20 8 -19 13 6 4 21 1 27 -13 27
-10 0 -21 5 -24 10 -3 6 -11 10 -18 10 -6 0 -1 -7 11 -16z"/>
<path d="M3228 608 c15 -15 16 -231 2 -259 -10 -17 -7 -19 32 -19 l43 0 -3
137 c-2 104 0 138 10 144 8 5 -9 9 -41 9 -43 0 -52 -3 -43 -12z"/>
<path d="M3468 613 c8 -3 12 -33 12 -99 0 -143 25 -186 107 -182 36 1 36 1 6
5 -22 3 -34 11 -39 25 -8 27 -7 234 1 248 4 6 -14 10 -47 9 -29 0 -47 -3 -40
-6z"/>
<path d="M3663 608 c13 -10 17 -33 20 -103 l3 -90 2 97 c1 66 6 98 15 101 6 3
-3 6 -22 6 -30 1 -33 -1 -18 -11z"/>
<path d="M3759 611 c20 -13 18 -261 -2 -273 -24 -15 142 -8 183 8 67 27 67 93
0 123 l-39 17 29 17 c66 40 39 117 -40 117 -19 0 -19 -1 1 -21 17 -17 20 -29
15 -58 -3 -20 -12 -40 -20 -45 -12 -8 -11 -12 7 -21 30 -15 43 -65 26 -101
-11 -22 -22 -30 -47 -32 l-32 -3 0 135 c0 98 3 136 13 139 6 3 -15 6 -48 6
-40 0 -55 -2 -46 -8z"/>
<path d="M2851 544 c0 -11 3 -14 6 -6 3 7 2 16 -1 19 -3 4 -6 -2 -5 -13z"/>
<path d="M2816 445 c-9 -26 -7 -32 5 -12 6 10 9 21 6 23 -2 3 -7 -2 -11 -11z"/>
<path d="M3420 406 c0 -24 -40 -65 -68 -69 -15 -2 -3 -5 26 -6 l52 -1 0 45 c0
25 -2 45 -5 45 -3 0 -5 -6 -5 -14z"/>
<path d="M3150 392 c0 -10 -5 -23 -11 -29 -7 -7 -5 -12 8 -15 16 -4 18 0 15
29 -4 35 -12 45 -12 15z"/>
<path d="M1153 205 c-2 -7 -3 -39 -1 -71 3 -59 3 -59 36 -62 40 -4 77 23 66
47 -4 9 -8 32 -8 51 -1 34 -3 35 -44 41 -30 4 -45 2 -49 -6z m72 -30 c0 -14
-8 -21 -27 -23 -24 -3 -28 0 -28 23 0 23 4 26 28 23 19 -2 27 -9 27 -23z m-7
-41 c13 -4 22 -14 22 -25 0 -15 -7 -19 -35 -19 -31 0 -35 3 -35 25 0 26 9 29
48 19z"/>
<path d="M2216 199 c-46 -36 -30 -110 26 -124 84 -21 118 106 36 134 -38 13
-31 15 -62 -10z m76 -16 c36 -32 13 -93 -36 -93 -31 0 -46 18 -46 55 0 53 43
73 82 38z"/>
<path d="M2594 195 c-3 -12 -4 -44 -2 -71 l3 -49 43 -3 c25 -2 42 1 42 7 0 6
-16 11 -36 11 -31 0 -35 3 -32 23 2 16 11 23 33 26 l30 4 -30 6 c-21 4 -31 13
-33 28 -3 19 2 22 35 25 l38 3 -43 5 c-37 5 -43 3 -48 -15z"/>
<path d="M3220 208 c0 -5 14 -8 30 -8 30 0 42 -21 20 -35 -5 -3 -24 -26 -40
-51 l-31 -44 61 0 c33 0 60 4 60 10 0 6 -18 10 -40 10 -22 0 -40 3 -40 6 0 4
16 28 35 54 19 26 35 50 35 53 0 3 -20 7 -45 9 -25 2 -45 0 -45 -4z"/>
<path d="M3417 200 c-50 -40 -25 -130 36 -130 35 0 67 35 67 75 0 31 -21 65
-40 65 -5 0 -15 2 -22 5 -8 3 -26 -4 -41 -15z m73 -20 c24 -24 25 -38 4 -68
-18 -26 -50 -28 -76 -5 -22 20 -23 42 -2 71 19 27 48 28 74 2z"/>
<path d="M1346 194 c-53 -53 -5 -138 68 -120 24 6 46 43 46 76 0 49 -79 79
-114 44z m78 -10 c19 -18 21 -65 4 -82 -19 -19 -66 -15 -78 7 -15 29 -12 49
10 71 24 24 43 25 64 4z"/>
<path d="M1546 188 c-23 -32 -20 -71 7 -96 54 -51 123 0 108 80 -7 40 -90 52
-115 16z m86 -5 c35 -31 10 -93 -37 -93 -43 0 -65 60 -34 91 23 23 47 24 71 2z"/>
<path d="M1740 140 c0 -40 4 -70 10 -70 6 0 10 13 10 29 0 46 19 48 56 5 39
-46 45 -36 8 13 l-26 35 28 29 c37 39 14 37 -31 -2 l-35 -31 0 31 c0 17 -4 31
-10 31 -6 0 -10 -30 -10 -70z"/>
<path d="M2032 143 l3 -68 43 -3 c25 -2 42 1 42 7 0 6 -16 11 -35 11 l-35 0 0
60 c0 35 -4 60 -10 60 -7 0 -10 -25 -8 -67z"/>
<path d="M2410 159 c30 -75 41 -92 51 -82 16 16 58 134 46 130 -6 -2 -18 -24
-27 -50 -9 -26 -19 -49 -22 -52 -3 -3 -14 18 -25 47 -11 28 -25 54 -32 56 -7
2 -4 -16 9 -49z"/>
<path d="M2760 140 c0 -40 4 -70 10 -70 6 0 10 14 10 30 0 19 5 30 14 30 8 0
24 -14 36 -30 12 -17 26 -30 31 -30 6 0 1 13 -10 29 -18 25 -19 30 -6 41 36
30 9 70 -47 70 l-38 0 0 -70z m80 45 c17 -20 -3 -45 -36 -45 -20 0 -24 5 -24
30 0 25 4 30 24 30 13 0 29 -7 36 -15z"/>
<path d="M2957 203 c-19 -18 -5 -50 28 -66 44 -21 47 -47 5 -47 -16 0 -30 5
-30 11 0 5 -5 7 -10 4 -17 -10 9 -35 36 -35 25 0 54 24 54 45 0 7 -18 22 -40
31 -54 24 -51 50 5 47 29 -2 36 0 25 7 -17 11 -63 13 -73 3z"/>
<path d="M3600 139 c0 -49 3 -68 11 -63 7 4 9 23 5 50 -7 54 4 56 41 7 34 -46
50 -63 57 -63 3 0 6 32 6 70 0 43 -4 70 -11 70 -6 0 -10 -19 -9 -47 1 -27 1
-52 1 -57 -1 -5 -20 17 -43 48 -23 31 -45 56 -50 56 -4 0 -8 -32 -8 -71z"/>
<path d="M3809 198 c-1 -7 -1 -38 -2 -68 l-1 -55 42 -3 c25 -2 42 1 42 7 0 6
-16 11 -36 11 -31 0 -35 3 -32 23 2 16 11 23 33 26 l30 4 -30 6 c-45 9 -42 44
5 52 l35 6 -42 2 c-28 1 -43 -3 -44 -11z"/>
</g>
</svg>
